<svg version="1.2" xmlns="http://www.w3.org/2000/svg" viewBox="0 0 20 20" height="20" width="20">
  <g fill="#fff">
    <path d="M11.964 3.284c.021.237.036.474.036.716a8 8 0 0 1-8 8c-.242 0-.479-.015-.716-.036a7 7 0 1 0 8.68-8.68z" fill-opacity=".2" stroke="#fff" stroke-linecap="round" stroke-linejoin="round" stroke-width="1"></path>
    <path d="M7 4a.979.979 0 0 1-1-1 1 1 0 0 0-2 0 .979.979 0 0 1-1 1 1 1 0 0 0 0 2 .979.979 0 0 1 1 1 1 1 0 0 0 2 0 .979.979 0 0 1 1-1 1 1 0 0 0 0-2z"></path>
  </g>
</svg>
